<?xml version="1.0" encoding="iso-8859-1"?>
<!-- Uploaded to: SVG Repo, www.svgrepo.com, Generator: SVG Repo Mixer Tools -->
<svg height="800px" width="800px" version="1.1" id="Layer_1" xmlns="http://www.w3.org/2000/svg" xmlns:xlink="http://www.w3.org/1999/xlink" 
	 viewBox="0 0 511.6 511.6" xml:space="preserve">
<polygon style="fill:#E6E9ED;" points="293.118,0 37.311,0 37.311,447.651 357.069,447.651 357.069,63.95 "/>
<path style="fill:#ED5564;" d="M198.638,99.961l-65.402,49.25v85.277c0,5.886,4.777,10.648,10.664,10.648h106.401
	c5.885,0,10.663-4.763,10.663-10.648v-85.277L198.638,99.961z"/>
<path style="fill:#434A54;" d="M271.792,277.112h-63.943v-31.975h0.078v-31.976c0-5.886-4.762-10.647-10.648-10.647
	s-10.664,4.762-10.664,10.647v24.98h-0.093v38.97H101.26v17.33v3.997v46.62h21.312v-46.62h63.95v74.598h21.327v-74.598h63.943
	c5.902,0,10.648-4.777,10.648-10.663C282.441,281.889,277.695,277.112,271.792,277.112z"/>
<polygon style="fill:#CCD1D9;" points="357.069,63.95 293.118,63.95 293.118,0 "/>
<path style="fill:#434A54;" d="M279.349,162.997L279.349,162.997l-74.56-74.605v-0.008c-4.168-4.161-10.913-4.161-15.082,0
	c-0.031,0.047-0.062,0.086-0.109,0.133v-0.008l-74.551,74.48c0,0,0,0,0,0.008c-4.168,4.161-4.168,10.906,0,15.066
	c4.153,4.169,10.898,4.169,15.066,0l0,0l67.135-67.064l67.011,67.064l0,0c4.168,4.169,10.906,4.169,15.059,0
	C283.501,173.911,283.501,167.158,279.349,162.997z"/>
<circle style="fill:#F6BB42;" cx="111.92" cy="362.39" r="31.975"/>
<circle style="fill:#8CC153;" cx="197.19" cy="362.39" r="31.975"/>
<path style="fill:#AC92EB;" d="M474.289,426.339v-63.95h-26.76c-1.156-3.217-2.436-6.339-3.904-9.384l18.955-18.938l-45.215-45.23
	l-18.953,18.955c-3.029-1.469-6.152-2.764-9.369-3.889v-26.791h-63.949v26.791c-3.217,1.125-6.34,2.42-9.398,3.889l-18.924-18.955
	l-45.222,45.23l18.938,18.938c-1.451,3.045-2.746,6.167-3.887,9.384h-26.776v63.95h26.776c1.141,3.2,2.436,6.338,3.887,9.367
	l-18.938,18.938l45.222,45.23l18.924-18.938c3.059,1.452,6.182,2.748,9.398,3.888V511.6h63.949v-26.775
	c3.217-1.14,6.34-2.436,9.369-3.888l18.953,18.938l45.215-45.23l-18.955-18.938c1.469-3.029,2.748-6.167,3.904-9.367
	L474.289,426.339L474.289,426.339z M357.069,426.339c-17.674,0-31.975-14.317-31.975-31.976s14.301-31.975,31.975-31.975
	c17.643,0,31.975,14.316,31.975,31.975S374.711,426.339,357.069,426.339z"/>
<path style="fill:#967ADC;" d="M357.069,341.062c-29.383,0-53.303,23.919-53.303,53.302c0,29.384,23.92,53.287,53.303,53.287
	s53.271-23.903,53.271-53.287C410.34,364.981,386.451,341.062,357.069,341.062z M357.069,426.339
	c-17.674,0-31.975-14.317-31.975-31.976s14.301-31.975,31.975-31.975c17.643,0,31.975,14.316,31.975,31.975
	S374.711,426.339,357.069,426.339z"/>
</svg>