<?xml version="1.0" standalone="no"?>
<!DOCTYPE svg PUBLIC "-//W3C//DTD SVG 20010904//EN"
 "http://www.w3.org/TR/2001/REC-SVG-20010904/DTD/svg10.dtd">
<svg version="1.0" xmlns="http://www.w3.org/2000/svg"
 width="736.000000pt" height="736.000000pt" viewBox="0 0 736.000000 736.000000"
 preserveAspectRatio="xMidYMid meet">

<g transform="translate(0.000000,736.000000) scale(0.100000,-0.100000)"
fill="#000000" stroke="none">
<path d="M3828 6270 c-9 -14 -19 -36 -23 -50 -8 -28 -103 -130 -121 -130 -7 0
-14 -3 -16 -7 -5 -13 -118 -94 -118 -86 0 4 -4 4 -8 -2 -16 -22 -255 -115
-295 -115 -5 0 -23 -6 -40 -14 -36 -16 -136 -36 -179 -36 -15 0 -36 -4 -46 -9
-9 -5 -80 -16 -156 -25 -77 -9 -144 -20 -150 -24 -6 -5 -37 -14 -69 -21 -32
-7 -70 -19 -85 -27 -15 -8 -36 -14 -47 -14 -11 0 -31 -7 -43 -16 -12 -8 -22
-12 -22 -8 0 3 -6 2 -12 -3 -7 -6 -31 -16 -53 -23 -22 -7 -53 -21 -70 -31 -74
-46 -105 1 -39 60 19 18 33 38 31 44 -6 16 -77 11 -113 -8 -16 -8 -36 -15 -45
-15 -8 0 -24 -6 -34 -14 -11 -8 -25 -12 -32 -9 -7 3 -13 1 -13 -4 0 -6 -18
-16 -40 -23 -22 -7 -40 -16 -40 -19 0 -3 -18 -12 -39 -18 -22 -7 -61 -27 -88
-45 -26 -18 -60 -40 -75 -48 -78 -44 -273 -233 -284 -275 -3 -13 -11 -26 -18
-28 -7 -3 -19 -26 -26 -51 -10 -38 -17 -46 -36 -46 -19 0 -24 5 -24 24 0 14
-5 28 -11 32 -7 4 -10 36 -7 90 2 46 2 84 -1 84 -28 -1 -175 -174 -212 -248
-17 -37 -37 -78 -44 -92 -35 -72 -45 -189 -32 -387 7 -107 6 -123 -7 -123 -8
0 -19 -6 -23 -13 -4 -7 -24 -19 -43 -27 -19 -8 -41 -22 -48 -32 -7 -10 -19
-18 -25 -18 -16 0 -167 -152 -167 -168 0 -6 -4 -12 -8 -12 -5 0 -16 -15 -25
-32 -10 -18 -29 -53 -43 -78 -26 -47 -54 -157 -54 -215 0 -19 -5 -37 -10 -40
-6 -4 -10 -66 -10 -153 1 -113 4 -151 15 -166 8 -11 16 -18 18 -15 2 2 14 19
26 37 33 47 118 112 147 112 28 0 43 -25 25 -43 -14 -14 -15 -123 -1 -132 5
-3 10 -35 10 -70 0 -63 22 -191 39 -230 81 -181 157 -318 188 -338 7 -4 13
-15 13 -22 0 -8 7 -15 15 -15 8 0 15 -7 15 -15 0 -8 6 -15 13 -15 18 0 47 32
47 52 0 9 7 18 15 22 8 3 15 12 15 19 0 8 6 20 13 26 8 6 22 38 33 71 10 33
22 60 26 60 5 0 8 7 8 16 0 42 27 -3 65 -107 77 -213 178 -382 316 -524 56
-58 89 -100 89 -113 0 -12 -4 -22 -10 -22 -5 0 -9 -3 -8 -7 1 -5 -3 -18 -10
-31 -46 -81 -64 -226 -43 -327 23 -103 73 -245 98 -277 6 -7 20 -31 31 -54 23
-44 165 -184 188 -184 8 0 14 -4 14 -9 0 -5 15 -14 33 -21 17 -6 46 -18 62
-25 86 -40 261 -52 365 -26 93 24 192 76 254 133 26 23 37 23 74 -5 317 -231
575 -342 922 -397 191 -30 317 -34 496 -15 150 15 186 21 339 58 107 26 296
96 383 143 26 14 76 42 112 61 36 19 110 64 165 101 123 81 329 283 398 390
26 40 47 75 47 77 0 2 12 21 26 42 45 67 114 212 145 307 44 134 48 232 16
365 -28 108 -38 127 -134 238 -29 33 -53 66 -53 72 0 6 33 35 73 65 100 74
108 85 186 228 68 128 87 239 55 329 -8 24 -30 101 -49 171 -39 149 -72 215
-134 270 -57 49 -185 119 -273 147 -36 12 -71 27 -76 34 -5 7 -28 57 -51 112
-23 55 -58 126 -77 157 -33 55 -37 78 -12 78 6 0 58 -22 114 -50 107 -51 184
-116 279 -235 65 -81 78 -95 90 -95 8 0 15 39 20 118 13 169 11 200 -17 267
-13 33 -47 117 -74 187 -37 96 -53 128 -66 128 -10 0 -18 7 -18 15 0 8 -6 15
-14 15 -8 0 -16 4 -18 8 -5 13 -96 72 -128 84 -39 13 -41 45 -2 54 15 4 39 15
54 25 14 11 31 19 37 19 17 0 111 90 111 107 0 7 7 16 15 19 8 4 15 11 15 16
0 5 9 22 20 37 10 16 26 50 35 77 9 27 19 56 24 64 5 9 14 49 21 90 6 41 17
85 23 98 18 37 -2 57 -53 55 -23 -1 -47 -7 -54 -12 -24 -20 -180 -43 -286 -43
-106 0 -318 25 -355 42 -11 5 -47 14 -80 20 -33 6 -69 15 -80 20 -11 6 -49 13
-85 17 -46 6 -65 12 -65 22 0 19 41 29 143 37 45 4 84 10 86 13 5 7 239 -2
358 -14 69 -6 79 -5 84 10 8 20 -16 69 -52 108 -13 14 -24 30 -24 35 0 19 -55
57 -140 97 -19 10 -42 23 -50 30 -8 7 -33 18 -55 25 -22 7 -45 16 -50 21 -10
7 -129 32 -250 50 -40 6 -82 6 -125 -1 -36 -6 -110 -18 -165 -26 -55 -8 -109
-19 -120 -24 -11 -5 -38 -14 -60 -20 -22 -6 -47 -14 -55 -17 -8 -4 -21 -5 -27
-4 -7 1 -13 -3 -13 -9 0 -5 -8 -10 -17 -10 -32 0 -222 -104 -238 -130 -3 -5
-20 -10 -37 -10 -26 0 -30 3 -25 23 3 12 13 51 22 87 28 107 3 222 -64 300
l-38 44 -15 -24z m643 -1763 c78 -104 139 -200 139 -218 0 -9 -12 -24 -26 -33
-18 -13 -24 -24 -22 -44 3 -25 6 -27 45 -25 l43 2 15 -51 c8 -29 15 -64 15
-79 0 -92 28 -121 87 -90 47 23 182 130 241 188 l43 43 39 -20 c47 -24 57 -38
33 -46 -92 -32 -188 -90 -256 -156 -122 -121 -189 -261 -204 -430 l-8 -83 -44
-3 c-74 -5 -86 1 -110 66 -69 191 -239 350 -451 422 -88 30 -278 38 -370 17
-36 -9 -67 -13 -70 -10 -8 7 60 60 120 92 81 43 164 64 260 65 47 1 91 5 98 9
20 13 14 55 -10 68 -33 18 -210 5 -281 -20 -139 -49 -264 -143 -333 -251 -16
-25 -66 -81 -111 -124 -130 -124 -202 -250 -228 -405 -10 -57 -19 -79 -37 -93
-72 -55 -520 -369 -522 -366 -2 1 -11 48 -20 103 -44 269 -2 531 127 797 l61
127 46 -7 c25 -4 101 -7 170 -6 106 1 137 5 206 27 82 27 164 75 264 153 84
65 150 131 150 148 0 33 -36 54 -107 61 -37 4 -95 13 -127 21 -63 15 -180 64
-172 71 2 3 62 -8 133 -24 118 -26 144 -28 338 -28 166 0 228 4 295 19 125 27
283 80 385 130 50 24 95 45 100 45 6 0 31 -28 56 -62z m763 -126 c44 -87 98
-213 93 -216 -1 -1 -28 -5 -59 -8 -56 -5 -58 -5 -58 19 0 19 -12 31 -55 55
-30 17 -55 33 -55 35 0 2 9 18 20 36 11 18 27 65 36 105 9 40 20 70 25 67 5
-3 29 -45 53 -93z m141 -353 c69 -242 91 -546 54 -788 -10 -67 -60 -302 -66
-309 -6 -9 -138 -1 -188 10 -52 12 -205 86 -205 99 0 24 129 26 193 3 55 -20
82 -11 82 28 0 17 -10 29 -35 43 l-35 18 0 162 c0 131 -3 171 -19 216 -42 124
-124 236 -194 266 -27 12 -38 12 -60 2 -41 -20 -79 -99 -92 -194 -18 -123 -12
-137 76 -187 40 -23 74 -45 74 -48 0 -3 -22 -25 -50 -48 -61 -52 -63 -72 -14
-152 49 -81 38 -95 -19 -25 -90 110 -137 240 -137 376 0 98 16 163 63 260 93
190 288 316 494 319 l62 1 16 -52z m180 3 c121 -60 191 -121 251 -222 69 -115
92 -193 85 -286 -1 -7 -31 -26 -68 -44 -38 -17 -91 -47 -119 -65 -28 -19 -56
-34 -61 -34 -6 0 -27 -13 -48 -30 -21 -16 -43 -30 -50 -30 -9 0 -12 37 -11
148 1 179 -17 363 -50 491 -26 105 -27 111 -17 111 4 0 43 -18 88 -39z m-1585
-142 c30 -6 97 -31 148 -55 166 -80 290 -234 337 -419 19 -75 19 -221 0 -302
-51 -217 -229 -402 -450 -469 -92 -27 -259 -26 -355 4 -206 64 -368 226 -432
432 -35 113 -33 276 5 383 50 144 135 252 265 337 144 96 293 123 482 89z
m714 -562 c24 -84 60 -157 107 -219 21 -29 39 -55 39 -58 0 -3 -17 -12 -37
-19 -60 -21 -83 -39 -83 -66 0 -40 31 -48 90 -25 99 39 155 17 183 -72 9 -27
-12 -86 -43 -122 -33 -37 -101 -70 -179 -87 -27 -6 -55 -17 -61 -24 -15 -18
-9 -45 12 -59 39 -24 213 37 277 97 42 40 81 121 81 168 0 20 2 38 5 41 3 2
35 -4 72 -13 91 -24 237 -24 331 0 l73 18 74 -88 c90 -108 119 -157 139 -234
42 -158 -8 -347 -157 -598 -156 -263 -399 -481 -702 -630 -94 -47 -380 -142
-496 -166 -425 -87 -866 -28 -1257 168 -103 51 -253 146 -327 207 -63 51 -83
52 -141 6 -122 -96 -204 -130 -334 -139 -236 -15 -442 114 -544 342 -146 324
-39 611 256 688 75 20 142 8 246 -43 l82 -41 145 133 c80 73 148 141 151 150
3 11 -14 58 -41 114 -26 53 -45 97 -43 98 1 2 115 83 252 180 170 121 251 174
256 165 4 -6 11 -34 14 -61 28 -209 191 -425 392 -520 l69 -33 -100 -5 c-161
-9 -248 -65 -320 -205 -38 -75 -40 -83 -40 -169 0 -87 2 -94 39 -161 47 -84
176 -215 258 -263 135 -80 432 -183 623 -218 147 -26 409 -25 531 3 203 47
361 132 494 263 131 130 180 249 158 386 -10 65 -59 168 -84 178 -11 4 -58
-11 -120 -39 -106 -47 -252 -85 -333 -85 -78 0 -253 31 -351 62 -52 17 -156
56 -230 88 -74 32 -170 70 -213 85 -43 15 -75 30 -72 33 2 3 28 7 57 9 84 6
158 23 223 51 283 122 450 381 445 687 -1 50 -1 92 -1 95 1 3 27 6 59 7 l57 1
19 -61z m1178 24 c-6 -76 -119 -233 -222 -308 -59 -43 -79 -53 -99 -48 -53 13
-62 40 -39 119 19 67 49 98 164 163 60 34 125 73 144 87 44 31 56 28 52 -13z
m-2229 -870 c4 -4 1 -50 -8 -102 -28 -176 -13 -366 44 -531 16 -49 26 -90 23
-92 -13 -8 -188 74 -252 118 -112 77 -204 190 -230 281 -17 61 -3 127 45 205
66 109 138 143 280 134 50 -3 94 -9 98 -13z m442 -139 l140 -59 13 -44 c8 -25
16 -111 19 -199 4 -138 2 -169 -20 -278 -14 -68 -27 -125 -29 -128 -13 -12
-344 53 -374 74 -25 17 -95 213 -113 316 -22 119 -8 398 20 432 12 15 142 -28
344 -114z m1066 -117 c16 -56 5 -133 -27 -201 -48 -102 -213 -246 -350 -304
-26 -11 -48 -19 -50 -17 -2 2 3 35 11 75 24 112 36 260 29 338 l-6 70 88 18
c78 15 205 58 253 86 20 12 37 -9 52 -65z m-636 -20 c49 -8 106 -16 125 -17
l35 -3 -1 -145 c0 -80 -6 -172 -13 -205 -20 -98 -44 -166 -61 -175 -41 -22
-300 -41 -300 -22 0 5 10 53 22 108 23 107 30 299 15 431 l-8 71 47 -14 c27
-8 89 -21 139 -29z"/>
<path d="M3856 3691 c-39 -40 -57 -109 -63 -237 -8 -161 -12 -154 112 -199 59
-22 109 -43 112 -48 3 -4 -25 -39 -61 -77 -36 -37 -66 -73 -66 -79 0 -7 9 -29
20 -51 11 -22 20 -43 20 -48 0 -5 -25 -26 -55 -47 -58 -39 -77 -74 -55 -100
19 -23 35 -19 106 30 36 25 71 45 77 46 7 0 35 4 62 9 56 9 143 -3 189 -27 22
-11 34 -12 52 -4 32 14 33 58 1 72 -22 10 -23 14 -23 147 0 147 -14 215 -67
334 -48 107 -157 244 -231 289 -47 29 -97 25 -130 -10z"/>
<path d="M2165 2086 c-70 -17 -135 -52 -195 -104 -55 -48 -61 -74 -24 -99 20
-13 26 -10 74 31 77 65 131 88 224 94 l78 5 -8 -34 c-15 -57 -9 -141 13 -189
27 -62 84 -120 116 -120 51 0 56 64 8 90 -43 23 -73 130 -55 198 9 31 21 28
89 -23 65 -49 76 -53 99 -29 23 23 20 36 -16 71 -106 101 -263 143 -403 109z"/>
</g>
</svg>
